<svg width="157" height="72" viewBox="0 0 157 72" fill="none" xmlns="http://www.w3.org/2000/svg">
<path d="M67.04 9.08C68.816 9.08 70.368 9.44 71.696 10.16C73.04 10.864 74.072 11.856 74.792 13.136C75.512 14.416 75.872 15.88 75.872 17.528C75.872 19.16 75.504 20.616 74.768 21.896C74.048 23.176 73.016 24.184 71.672 24.92C70.344 25.64 68.8 26 67.04 26H60.344V9.08H67.04ZM66.68 21.848C68.056 21.848 69.136 21.472 69.92 20.72C70.704 19.968 71.096 18.904 71.096 17.528C71.096 16.136 70.704 15.064 69.92 14.312C69.136 13.544 68.056 13.16 66.68 13.16H65.048V21.848H66.68ZM84.2564 26.168C82.9124 26.168 81.7044 25.888 80.6324 25.328C79.5764 24.768 78.7444 23.968 78.1364 22.928C77.5284 21.888 77.2244 20.664 77.2244 19.256C77.2244 17.864 77.5284 16.648 78.1364 15.608C78.7604 14.568 79.6004 13.768 80.6564 13.208C81.7284 12.648 82.9364 12.368 84.2804 12.368C85.6244 12.368 86.8244 12.648 87.8804 13.208C88.9524 13.768 89.7924 14.568 90.4004 15.608C91.0244 16.648 91.3364 17.864 91.3364 19.256C91.3364 20.648 91.0244 21.872 90.4004 22.928C89.7924 23.968 88.9524 24.768 87.8804 25.328C86.8084 25.888 85.6004 26.168 84.2564 26.168ZM84.2564 22.088C84.9124 22.088 85.4564 21.848 85.8884 21.368C86.3364 20.872 86.5604 20.168 86.5604 19.256C86.5604 18.344 86.3364 17.648 85.8884 17.168C85.4564 16.688 84.9204 16.448 84.2804 16.448C83.6404 16.448 83.1044 16.688 82.6724 17.168C82.2404 17.648 82.0244 18.344 82.0244 19.256C82.0244 20.184 82.2324 20.888 82.6484 21.368C83.0644 21.848 83.6004 22.088 84.2564 22.088ZM101.674 26L97.9543 20.48V26H93.2503V8.24H97.9543V17.816L101.674 12.536H107.314L102.01 19.304L107.41 26H101.674ZM116.733 21.992V26H114.693C111.253 26 109.533 24.296 109.533 20.888V16.448H107.877V12.536H109.533V9.272H114.261V12.536H116.709V16.448H114.261V20.96C114.261 21.328 114.341 21.592 114.501 21.752C114.677 21.912 114.965 21.992 115.365 21.992H116.733ZM131.755 19.112C131.755 19.48 131.731 19.848 131.683 20.216H122.779C122.827 20.952 123.027 21.504 123.379 21.872C123.747 22.224 124.211 22.4 124.771 22.4C125.555 22.4 126.115 22.048 126.451 21.344H131.467C131.259 22.272 130.851 23.104 130.243 23.84C129.651 24.56 128.899 25.128 127.987 25.544C127.075 25.96 126.067 26.168 124.963 26.168C123.635 26.168 122.451 25.888 121.411 25.328C120.387 24.768 119.579 23.968 118.987 22.928C118.411 21.888 118.123 20.664 118.123 19.256C118.123 17.848 118.411 16.632 118.987 15.608C119.563 14.568 120.363 13.768 121.387 13.208C122.427 12.648 123.619 12.368 124.963 12.368C126.291 12.368 127.467 12.64 128.491 13.184C129.515 13.728 130.315 14.512 130.891 15.536C131.467 16.544 131.755 17.736 131.755 19.112ZM126.955 17.936C126.955 17.36 126.763 16.912 126.379 16.592C125.995 16.256 125.515 16.088 124.939 16.088C124.363 16.088 123.891 16.248 123.523 16.568C123.155 16.872 122.915 17.328 122.803 17.936H126.955ZM138.384 14.912C138.912 14.144 139.552 13.536 140.304 13.088C141.056 12.64 141.864 12.416 142.728 12.416V17.432H141.408C140.384 17.432 139.624 17.632 139.128 18.032C138.632 18.432 138.384 19.128 138.384 20.12V26H133.68V12.536H138.384V14.912ZM68.456 62.168C66.872 62.168 65.416 61.8 64.088 61.064C62.76 60.312 61.704 59.28 60.92 57.968C60.152 56.64 59.768 55.144 59.768 53.48C59.768 51.816 60.152 50.328 60.92 49.016C61.704 47.688 62.76 46.656 64.088 45.92C65.416 45.184 66.872 44.816 68.456 44.816C70.056 44.816 71.512 45.184 72.824 45.92C74.152 46.656 75.2 47.688 75.968 49.016C76.736 50.328 77.12 51.816 77.12 53.48C77.12 55.144 76.736 56.64 75.968 57.968C75.2 59.28 74.152 60.312 72.824 61.064C71.496 61.8 70.04 62.168 68.456 62.168ZM68.456 57.8C69.656 57.8 70.6 57.408 71.288 56.624C71.992 55.84 72.344 54.792 72.344 53.48C72.344 52.136 71.992 51.08 71.288 50.312C70.6 49.528 69.656 49.136 68.456 49.136C67.24 49.136 66.288 49.528 65.6 50.312C64.912 51.08 64.568 52.136 64.568 53.48C64.568 54.808 64.912 55.864 65.6 56.648C66.288 57.416 67.24 57.8 68.456 57.8ZM88.0426 48.416C89.5946 48.416 90.8266 48.936 91.7386 49.976C92.6506 51 93.1066 52.392 93.1066 54.152V62H88.4026V54.776C88.4026 54.008 88.2026 53.408 87.8026 52.976C87.4026 52.528 86.8666 52.304 86.1946 52.304C85.4906 52.304 84.9386 52.528 84.5386 52.976C84.1386 53.408 83.9386 54.008 83.9386 54.776V62H79.2346V48.536H83.9386V50.456C84.3546 49.848 84.9146 49.36 85.6186 48.992C86.3226 48.608 87.1306 48.416 88.0426 48.416ZM108.432 45.08V48.824H103.92V62H99.2158V48.824H94.7518V45.08H108.432ZM112.548 47.288C111.716 47.288 111.044 47.064 110.532 46.616C110.036 46.152 109.788 45.576 109.788 44.888C109.788 44.184 110.036 43.6 110.532 43.136C111.044 42.672 111.716 42.44 112.548 42.44C113.364 42.44 114.02 42.672 114.516 43.136C115.028 43.6 115.284 44.184 115.284 44.888C115.284 45.576 115.028 46.152 114.516 46.616C114.02 47.064 113.364 47.288 112.548 47.288ZM114.876 48.536V62H110.172V48.536H114.876ZM135.147 48.416C136.843 48.416 138.171 48.928 139.131 49.952C140.107 50.976 140.595 52.376 140.595 54.152V62H135.891V54.776C135.891 54.056 135.691 53.496 135.291 53.096C134.891 52.696 134.347 52.496 133.659 52.496C132.971 52.496 132.427 52.696 132.027 53.096C131.627 53.496 131.427 54.056 131.427 54.776V62H126.723V54.776C126.723 54.056 126.523 53.496 126.123 53.096C125.739 52.696 125.203 52.496 124.515 52.496C123.811 52.496 123.259 52.696 122.859 53.096C122.459 53.496 122.259 54.056 122.259 54.776V62H117.555V48.536H122.259V50.312C122.675 49.736 123.211 49.28 123.867 48.944C124.539 48.592 125.307 48.416 126.171 48.416C127.163 48.416 128.043 48.632 128.811 49.064C129.595 49.496 130.211 50.104 130.659 50.888C131.139 50.152 131.771 49.56 132.555 49.112C133.339 48.648 134.203 48.416 135.147 48.416ZM156.036 55.112C156.036 55.48 156.012 55.848 155.964 56.216H147.06C147.108 56.952 147.308 57.504 147.66 57.872C148.028 58.224 148.492 58.4 149.052 58.4C149.836 58.4 150.396 58.048 150.732 57.344H155.748C155.54 58.272 155.132 59.104 154.524 59.84C153.932 60.56 153.18 61.128 152.268 61.544C151.356 61.96 150.348 62.168 149.244 62.168C147.916 62.168 146.732 61.888 145.692 61.328C144.668 60.768 143.86 59.968 143.268 58.928C142.692 57.888 142.404 56.664 142.404 55.256C142.404 53.848 142.692 52.632 143.268 51.608C143.844 50.568 144.644 49.768 145.668 49.208C146.708 48.648 147.9 48.368 149.244 48.368C150.572 48.368 151.748 48.64 152.772 49.184C153.796 49.728 154.596 50.512 155.172 51.536C155.748 52.544 156.036 53.736 156.036 55.112ZM151.236 53.936C151.236 53.36 151.044 52.912 150.66 52.592C150.276 52.256 149.796 52.088 149.22 52.088C148.644 52.088 148.172 52.248 147.804 52.568C147.436 52.872 147.196 53.328 147.084 53.936H151.236Z" fill="black"/>
<path d="M12.9203 12.807C15.7812 12.5277 21.8321 8.15263 24.5 6C27.1679 8.13996 33.2188 12.4893 36.0797 12.7669H45.4456C46.2971 13.3453 48 15.1267 48 17.6252V41.7432C47.6027 43.941 45.9565 48.9959 42.5507 51.6333C38.1232 56.0867 28.3145 65.2712 24.5 64.9936C20.6855 65.2728 10.8768 56.3831 6.44928 51.9033C3.04348 49.2503 1.39734 44.1655 1 41.9547V17.694C1 15.1807 2.7029 13.3887 3.55435 12.807H12.9203Z" fill="#EC1F1F"/>
<path d="M13.942 14.9828C16.5505 14.7282 22.0675 10.7392 24.5 8.77647C26.9325 10.7276 32.4495 14.6932 35.058 14.9463H43.5975C44.3738 15.4736 45.9265 17.0978 45.9265 19.3759V41.3658C45.5642 43.3697 44.0633 47.9786 40.958 50.3833C36.9211 54.4438 27.9779 62.8178 24.5 62.5647C21.0221 62.8193 12.0789 54.714 8.04199 50.6295C4.9367 48.2106 3.43581 43.5744 3.07353 41.5587V19.4386C3.07353 17.1471 4.62617 15.5133 5.40249 14.9828H13.942Z" fill="#EC1F1F"/>
<path d="M20.8713 32.1304V24.7412C20.8713 24.1662 21.3355 23.7 21.9081 23.7H27.4375C28.0101 23.7 28.4743 24.1662 28.4743 24.7412V32.1304C28.4743 32.7054 28.9384 33.1716 29.511 33.1716H36.5956C37.1682 33.1716 37.6323 33.6378 37.6323 34.2128V38.7427C37.6323 39.3177 37.1682 39.7838 36.5956 39.7838H29.511C28.9384 39.7838 28.4743 40.25 28.4743 40.825V46.6059C28.4743 47.1809 28.0101 47.6471 27.4375 47.6471H21.9081C21.3355 47.6471 20.8713 47.1809 20.8713 46.6059V40.825C20.8713 40.25 20.4071 39.7838 19.8346 39.7838H12.75C12.1774 39.7838 11.7132 39.3177 11.7132 38.7427V34.2128C11.7132 33.6378 12.1774 33.1716 12.75 33.1716H19.8346C20.4071 33.1716 20.8713 32.7054 20.8713 32.1304Z" fill="#FAEFEF"/>
<path d="M12.9203 12.807C15.7812 12.5277 21.8321 8.15263 24.5 6C27.1679 8.13996 33.2188 12.4893 36.0797 12.7669H45.4456C46.2971 13.3453 48 15.1267 48 17.6252V41.7432C47.6027 43.941 45.9565 48.9959 42.5507 51.6333C38.1232 56.0867 28.3145 65.2712 24.5 64.9936C20.6855 65.2728 10.8768 56.3831 6.44928 51.9033C3.04348 49.2503 1.39734 44.1655 1 41.9547V17.694C1 15.1807 2.7029 13.3887 3.55435 12.807H12.9203Z" stroke="black"/>
<path d="M13.942 14.9828C16.5505 14.7282 22.0675 10.7392 24.5 8.77647C26.9325 10.7276 32.4495 14.6932 35.058 14.9463H43.5975C44.3738 15.4736 45.9265 17.0978 45.9265 19.3759V41.3658C45.5642 43.3697 44.0633 47.9786 40.958 50.3833C36.9211 54.4438 27.9779 62.8178 24.5 62.5647C21.0221 62.8193 12.0789 54.714 8.04199 50.6295C4.9367 48.2106 3.43581 43.5744 3.07353 41.5587V19.4386C3.07353 17.1471 4.62617 15.5133 5.40249 14.9828H13.942Z" stroke="black"/>
<path d="M20.8713 32.1304V24.7412C20.8713 24.1662 21.3355 23.7 21.9081 23.7H27.4375C28.0101 23.7 28.4743 24.1662 28.4743 24.7412V32.1304C28.4743 32.7054 28.9384 33.1716 29.511 33.1716H36.5956C37.1682 33.1716 37.6323 33.6378 37.6323 34.2128V38.7427C37.6323 39.3177 37.1682 39.7838 36.5956 39.7838H29.511C28.9384 39.7838 28.4743 40.25 28.4743 40.825V46.6059C28.4743 47.1809 28.0101 47.6471 27.4375 47.6471H21.9081C21.3355 47.6471 20.8713 47.1809 20.8713 46.6059V40.825C20.8713 40.25 20.4071 39.7838 19.8346 39.7838H12.75C12.1774 39.7838 11.7132 39.3177 11.7132 38.7427V34.2128C11.7132 33.6378 12.1774 33.1716 12.75 33.1716H19.8346C20.4071 33.1716 20.8713 32.7054 20.8713 32.1304Z" stroke="black"/>
</svg>
